<svg xmlns="http://www.w3.org/2000/svg" viewBox="0 0 540 660" width="1080" height="1320"><defs><radialGradient id="h" cx="38%" cy="28%" r="85%"><stop offset="0" stop-color="#b79982"/><stop offset=".5" stop-color="#8b5a35"/><stop offset="1" stop-color="#5f3d24"/></radialGradient><radialGradient id="b" cx="38%" cy="28%" r="85%"><stop offset="0" stop-color="#a4b6c9"/><stop offset=".5" stop-color="#6c8aa8"/><stop offset="1" stop-color="#495e72"/></radialGradient><linearGradient id="rb" x1="0" y1="1" x2="0" y2="0"><stop offset="0" stop-color="#ff7ad9"/><stop offset=".5" stop-color="#ffd166"/><stop offset="1" stop-color="#7affd9"/></linearGradient><linearGradient id="bg" x1="0" y1="0" x2="1" y2="1"><stop offset="0" stop-color="#14304f"/><stop offset="1" stop-color="#050f1c"/></linearGradient></defs><rect width="540" height="660" fill="url(#bg)"/><ellipse cx="270" cy="556" rx="165" ry="16" fill="#000" opacity=".4"/><path d="M350 510 Q430 520 450 450" fill="none" stroke="#1a0f1f" stroke-width="40" stroke-linecap="round"/><path d="M350 510 Q430 520 450 450" fill="none" stroke="#6c8aa8" stroke-width="26" stroke-linecap="round"/><path d="M450 450 Q405 420 395 380 Q430 395 450 430 Q470 395 505 380 Q495 420 450 450Z" fill="#6c8aa8" stroke="#1a0f1f" stroke-width="8" stroke-linejoin="round"/><ellipse cx="270" cy="450" rx="106" ry="98" fill="url(#b)" stroke="#1a0f1f" stroke-width="9" stroke-linejoin="round" stroke-linecap="round"/><ellipse cx="270" cy="470" rx="64" ry="66" fill="#e6eef5" opacity=".95"/><ellipse cx="205" cy="548" rx="42" ry="20" fill="#566e86" stroke="#1a0f1f" stroke-width="8" stroke-linejoin="round" stroke-linecap="round"/><ellipse cx="335" cy="548" rx="42" ry="20" fill="#566e86" stroke="#1a0f1f" stroke-width="8" stroke-linejoin="round" stroke-linecap="round"/><path d="M185 395 Q95 430 105 500 Q135 470 185 440Z" fill="#6c8aa8" stroke="#1a0f1f" stroke-width="9" stroke-linejoin="round" stroke-linecap="round"/><path d="M355 395 Q445 430 435 500 Q405 470 355 440Z" fill="#6c8aa8" stroke="#1a0f1f" stroke-width="9" stroke-linejoin="round" stroke-linecap="round"/><path d="M165 165 Q90 150 70 80 Q110 100 150 100 Q160 130 195 140Z" fill="#fff0d6" stroke="#1a0f1f" stroke-width="9" stroke-linejoin="round" stroke-linecap="round"/><path d="M375 165 Q450 150 470 80 Q430 100 390 100 Q380 130 345 140Z" fill="#fff0d6" stroke="#1a0f1f" stroke-width="9" stroke-linejoin="round" stroke-linecap="round"/><circle cx="150" cy="128" r="50" fill="url(#h)" stroke="#1a0f1f" stroke-width="9" stroke-linejoin="round" stroke-linecap="round"/><circle cx="390" cy="128" r="50" fill="url(#h)" stroke="#1a0f1f" stroke-width="9" stroke-linejoin="round" stroke-linecap="round"/><circle cx="152" cy="132" r="25" fill="#e8a7a0" opacity=".85"/><circle cx="388" cy="132" r="25" fill="#e8a7a0" opacity=".85"/><ellipse cx="270" cy="240" rx="146" ry="126" fill="url(#h)" stroke="#1a0f1f" stroke-width="9" stroke-linejoin="round" stroke-linecap="round"/><ellipse cx="190" cy="165" rx="40" ry="16" fill="#fff" opacity=".3" transform="rotate(-25 190 165)"/><ellipse cx="270" cy="298" rx="84" ry="58" fill="#d9b48a" stroke="#1a0f1f" stroke-width="6" stroke-linejoin="round" stroke-linecap="round"/><g stroke="#1a0f1f" stroke-width="7"><circle cx="212" cy="225" r="32" fill="#fff"/><circle cx="328" cy="225" r="32" fill="#fff"/></g><g fill="#1a0f1f"><circle cx="217" cy="230" r="17"/><circle cx="333" cy="230" r="17"/></g><g fill="#fff"><circle cx="223" cy="223" r="6"/><circle cx="339" cy="223" r="6"/></g><g fill="none" stroke="#1a0f1f" stroke-width="11" stroke-linejoin="round" stroke-linecap="round"><path d="M168 186 L246 208"/><path d="M372 186 L294 208"/></g><ellipse cx="270" cy="272" rx="22" ry="15" fill="#1a0f1f"/><ellipse cx="264" cy="267" rx="6" ry="3" fill="#fff" opacity=".6"/><path d="M236 315 Q270 341 304 315" fill="none" stroke="#1a0f1f" stroke-width="7" stroke-linejoin="round" stroke-linecap="round"/><g fill="#ff8aa0" opacity=".35"><ellipse cx="158" cy="292" rx="22" ry="13"/><ellipse cx="382" cy="292" rx="22" ry="13"/></g><text x="270" y="598" text-anchor="middle" font-family="Arial Black, Arial, sans-serif" font-weight="900" font-size="38" fill="#fff" stroke="#1a0f1f" stroke-width="2">Bullbear Whale</text><text x="270" y="632" text-anchor="middle" font-family="Arial, sans-serif" font-weight="700" font-size="21" fill="#ffd166">$BULLWHALE  ·  bull + bear + whale</text></svg>