<svg xmlns="http://www.w3.org/2000/svg" viewBox="0 0 540 600" width="1080" height="1200">
<defs><radialGradient id="g" cx="38%" cy="30%" r="80%"><stop offset="0" stop-color="#c9ffb8"/><stop offset=".45" stop-color="#7dff6b"/><stop offset="1" stop-color="#34c04a"/></radialGradient>
<linearGradient id="bg" x1="0" y1="0" x2="1" y2="1"><stop offset="0" stop-color="#1a1240"/><stop offset="1" stop-color="#0a0620"/></linearGradient></defs>
<rect width="540" height="600" fill="url(#bg)"/>
<ellipse cx="270" cy="505" rx="150" ry="22" fill="#000" opacity=".35"/>
<g transform="rotate(-4 270 330)">
<path d="M270 105 C400 105 465 200 470 320 C474 430 410 505 270 505 C130 505 66 430 70 320 C75 200 140 105 270 105Z" fill="url(#g)" stroke="#10240f" stroke-width="9" stroke-linejoin="round"/>
<ellipse cx="170" cy="170" rx="42" ry="22" fill="#fff" opacity=".45" transform="rotate(-30 170 170)"/>
<path d="M250 108 Q262 70 285 62" fill="none" stroke="#10240f" stroke-width="9" stroke-linecap="round"/><circle cx="288" cy="60" r="15" fill="#7dff6b" stroke="#10240f" stroke-width="8"/>
<g fill="none" stroke="#10240f" stroke-width="14" stroke-linecap="round"><path d="M165 285 Q205 225 245 285"/><path d="M295 285 Q335 225 375 285"/></g><path d="M225 350 Q270 410 315 350Z" fill="#10240f"/><path d="M243 372 Q270 392 297 372 Q270 382 243 372Z" fill="#ff7a8a"/>
<g fill="#ff9aa8" opacity=".55"><ellipse cx="150" cy="345" rx="26" ry="15"/><ellipse cx="390" cy="345" rx="26" ry="15"/></g>
</g>
<text x="270" y="568" text-anchor="middle" font-family="Arial Black, Arial, sans-serif" font-weight="900" font-size="46" fill="#fff" stroke="#10240f" stroke-width="2">BLORP!</text>
</svg>