<svg xmlns="http://www.w3.org/2000/svg" width="1200" height="1200" viewBox="0 0 1200 1200"><rect width="1200" height="1200" rx="0" fill="#1F2A44"/><path d="M237.0,391.0 H335.0 M286.0,391.0 V539.0" stroke="#FFF8EC" stroke-width="52" stroke-linecap="round" stroke-linejoin="round" fill="none"/><circle cx="487.0" cy="465.0" r="74" stroke="#FF6B5B" stroke-width="52" stroke-linecap="round" stroke-linejoin="round" fill="none"/><circle cx="713.0" cy="465.0" r="74" stroke="#FFC23C" stroke-width="52" stroke-linecap="round" stroke-linejoin="round" fill="none"/><path d="M865.0,539.0 V391.0 L973.0,539.0 V391.0" stroke="#FFF8EC" stroke-width="52" stroke-linecap="round" stroke-linejoin="round" fill="none"/><path d="M227.0,809.0 V661.0 L335.0,809.0 V661.0" stroke="#FFF8EC" stroke-width="52" stroke-linecap="round" stroke-linejoin="round" fill="none"/><circle cx="487.0" cy="735.0" r="74" stroke="#1FB5A8" stroke-width="52" stroke-linecap="round" stroke-linejoin="round" fill="none"/><circle cx="713.0" cy="735.0" r="74" stroke="#FFC23C" stroke-width="52" stroke-linecap="round" stroke-linejoin="round" fill="none"/><circle cx="713.0" cy="735.0" r="74" fill="#FFC23C"/><path transform="translate(713.0,739.0) scale(3.6)" fill="#1F2A44" d="M0,9 C-4,6 -11,1 -11,-4 C-11,-8 -8,-10.5 -5.5,-10.5 C-3,-10.5 -1,-9 0,-7 C1,-9 3,-10.5 5.5,-10.5 C8,-10.5 11,-8 11,-4 C11,1 4,6 0,9 Z"/><path d="M865.0,809.0 V661.0 L973.0,809.0 V661.0" stroke="#FFF8EC" stroke-width="52" stroke-linecap="round" stroke-linejoin="round" fill="none"/></svg>